Coordinates
version=1
nRows=21
nColumns=12
inDegrees=yes

Units are S.I. units (second, meters, Newtons, ...)
Angles are in degrees

endheader
time	SC_y	SC_z	SC_x	AC_y	AC_z	AC_x	GH_y	GH_z	GH_yy	EL_x	PS_y
       0.0              -17.11          20.12          58.25          47.15         -8.297          1.499         -139.9           40.4         -7.476           50.0          14.82
   0.02644              -17.11          20.12          58.24          47.16         -8.298            1.5         -139.9           40.4          -7.49          50.01          14.82
   0.05288              -17.12          20.12          58.24          47.16           -8.3          1.501         -139.9           40.4         -7.505          50.02          14.82
   0.07932              -17.12          20.13          58.23          47.16         -8.301          1.502         -139.9           40.4         -7.521          50.04          14.82
    0.1058              -17.12          20.13          58.22          47.17         -8.303          1.503         -139.9          40.41         -7.539          50.05          14.82
    0.1322              -17.13          20.13          58.22          47.17         -8.304          1.504         -139.8          40.41         -7.557          50.06          14.81
    0.1586              -17.14          20.13          58.21          47.17         -8.306          1.505         -139.8          40.41         -7.577          50.08          14.81
    0.1851              -17.14          20.13           58.2          47.18         -8.308          1.507         -139.8          40.41         -7.598           50.1          14.81
    0.2115              -17.15          20.13          58.19          47.18          -8.31          1.508         -139.8          40.42          -7.62          50.11          14.81
     0.238              -17.15          20.14          58.18          47.19         -8.312          1.509         -139.7          40.42         -7.644          50.13          14.81
    0.2644              -17.16          20.14          58.18          47.19         -8.315          1.511         -139.7          40.42          -7.67          50.15          14.81
    0.2908              -17.17          20.14          58.17           47.2         -8.317          1.513         -139.7          40.43         -7.698          50.18           14.8
    0.3173              -17.18          20.14          58.15           47.2          -8.32          1.515         -139.7          40.43         -7.728           50.2           14.8
    0.3437              -17.19          20.14          58.14          47.21         -8.323          1.517         -139.6          40.44          -7.76          50.23           14.8
    0.3702               -17.2          20.15          58.13          47.22         -8.326          1.519         -139.6          40.44         -7.795          50.25           14.8
    0.3966              -17.21          20.15          58.12          47.23         -8.329          1.521         -139.5          40.45         -7.833          50.28          14.79
     0.423              -17.22          20.15           58.1          47.24         -8.333          1.524         -139.5          40.45         -7.874          50.32          14.79
    0.4495              -17.23          20.16          58.09          47.24         -8.337          1.526         -139.4          40.46         -7.919          50.35          14.79
    0.4759              -17.24          20.16          58.07          47.25         -8.341           1.53         -139.4          40.46         -7.969          50.39          14.78
    0.5024              -17.26          20.17          58.05          47.27         -8.346          1.533         -139.3          40.47         -8.022          50.44          14.78
    0.5288              -17.27          20.17          58.03          47.28         -8.352          1.536         -139.3          40.48         -8.082          50.48          14.78
